<?xml version="1.0" standalone="no"?>
<!DOCTYPE svg PUBLIC "-//W3C//DTD SVG 20010904//EN"
 "http://www.w3.org/TR/2001/REC-SVG-20010904/DTD/svg10.dtd">
<svg version="1.0" xmlns="http://www.w3.org/2000/svg"
 width="1057.000000pt" height="1280.000000pt" viewBox="0 0 1057.000000 1280.000000"
 preserveAspectRatio="xMidYMid meet">
<metadata>
Created by potrace 1.15, written by Peter Selinger 2001-2017
</metadata>
<g transform="translate(0.000000,1280.000000) scale(0.100000,-0.100000)"
fill="#ffffff" stroke="none">
<path d="M3890 12785 c-109 -20 -152 -33 -273 -82 -548 -218 -1076 -719 -1281
-1214 -101 -246 -123 -520 -61 -765 21 -82 93 -227 149 -301 142 -187 401
-350 735 -460 l145 -48 -1652 -3 -1652 -2 0 -1150 0 -1150 5285 0 5285 0 0
1150 0 1150 -1687 0 -1688 1 65 28 c36 16 139 68 230 116 458 243 745 435 880
589 17 18 44 64 62 101 26 58 32 82 36 166 7 151 -27 287 -118 469 -255 507
-850 1017 -1372 1173 -260 78 -500 79 -688 3 -164 -67 -337 -234 -429 -413
-12 -24 -41 -96 -65 -160 -230 -615 -504 -1264 -569 -1348 -15 -20 -16 -20
-47 10 -74 70 -158 259 -214 483 -14 53 -50 219 -81 367 -113 546 -195 793
-329 993 -86 129 -235 256 -339 288 -73 22 -235 27 -327 9z"/>
<path d="M500 3745 l0 -3745 4785 0 4785 0 0 3745 0 3745 -4785 0 -4785 0 0
-3745z"/>
</g>
</svg>
