<?xml version="1.0" encoding="iso-8859-1"?>
<!-- Generator: Adobe Illustrator 18.1.1, SVG Export Plug-In . SVG Version: 6.00 Build 0)  -->
<svg version="1.1" id="Capa_1" xmlns="http://www.w3.org/2000/svg" xmlns:xlink="http://www.w3.org/1999/xlink" x="0px" y="0px"
	 viewBox="0 0 23.939 23.939" style="enable-background:new 0 0 23.939 23.939;" xml:space="preserve">
<g>
	<g>
		<path style="fill:#FFF;" d="M23.939,22.685H0c0-0.75,0-1.5,0-2.248c0-1.18,0.35-1.609,1.236-2.295
			c1.956-1.511,4.874-2.472,7.917-3.308c0.542-0.149,0.42-0.208,0.429-0.763c0.01-0.558,0-0.506-0.407-0.849
			C5.797,10.37,6.061,1.851,11.97,1.254c5.908,0.597,6.172,9.116,2.793,11.968c-0.406,0.343-0.416,0.291-0.406,0.849
			c0.009,0.556-0.113,0.613,0.429,0.763c3.043,0.836,5.961,1.797,7.917,3.308c0.886,0.686,1.236,1.115,1.236,2.295
			C23.939,21.187,23.939,21.935,23.939,22.685z"/>
	</g>
</g>
<g>
</g>
<g>
</g>
<g>
</g>
<g>
</g>
<g>
</g>
<g>
</g>
<g>
</g>
<g>
</g>
<g>
</g>
<g>
</g>
<g>
</g>
<g>
</g>
<g>
</g>
<g>
</g>
<g>
</g>
</svg>
